<svg width="587" height="54" viewBox="0 0 587 54" fill="none" xmlns="http://www.w3.org/2000/svg">
<path d="M0.468 53V0.0239982H17.485V53H0.468ZM52.9573 0.0239982H69.9743V39.448H97.1553V53H52.9573V0.0239982ZM153.875 31.671C153.875 38.909 151.591 44.4273 147.022 48.226C142.454 52.0247 135.96 53.924 127.541 53.924C119.123 53.924 112.603 52.0247 107.983 48.226C103.415 44.4273 101.13 38.909 101.13 31.671V0.0239982H118.147V31.44C118.147 34.4173 118.943 36.8043 120.534 38.601C122.126 40.3463 124.436 41.219 127.464 41.219C130.493 41.219 132.803 40.3207 134.394 38.524C136.037 36.7273 136.858 34.366 136.858 31.44V0.0239982H153.875V31.671ZM178.516 53L159.728 0.0239982H177.9L188.526 35.444H188.834L199.537 0.0239982H216.939L198.228 53H178.516ZM292.886 53V33.904C292.886 31.5427 292.963 29.13 293.117 26.666C293.323 24.1507 293.528 22.046 293.733 20.352C293.939 18.658 294.067 17.58 294.118 17.118H293.81L284.031 53H270.71L260.854 17.195H260.546C260.598 17.657 260.726 18.735 260.931 20.429C261.188 22.0717 261.419 24.1507 261.624 26.666C261.83 29.13 261.932 31.5427 261.932 33.904V53H246.301V0.0239982H270.325L278.333 30.593H278.641L286.572 0.0239982H309.749V53H292.886ZM351.817 53H334.8V32.441L313.779 0.0239982H333.337L343.501 17.657H343.809L353.973 0.0239982H372.53L351.817 32.441V53ZM571.961 34.058L567.726 0.0239982H586.129L581.74 34.058H571.961ZM569.266 53V38.755H584.512V53H569.266Z" fill="white"/>
<path d="M440.084 53L417.831 27.282V53H402.2V0.0239982H417.061L439.314 26.127V0.0239982H454.945V53H440.084Z" fill="#BEEF00"/>
<path d="M465.187 0.0239982H507.999V12.729H482.204V21.815H504.38V33.981H482.204V53H465.187V0.0239982ZM545.882 13.576V53H528.865V13.576H511.463V0.0239982H563.207V13.576H545.882Z" fill="#FE019A"/>
</svg>
