<svg width="545" height="55" viewBox="0 0 545 55" fill="none" xmlns="http://www.w3.org/2000/svg">
<path d="M48.203 15.346V23.893H39.502L37.5 33.364H45.662V41.757H35.344L32.495 54.847H23.486L26.335 41.757H17.48L14.708 54.847H5.468L8.24 41.757H0.54V33.364H10.242L12.398 23.893H4.082V15.346H14.092L17.48 0.0999963H26.874L23.409 15.346H31.956L35.344 0.0999963H44.584L41.042 15.346H48.203ZM19.405 33.441H28.183L30.416 23.97H21.484L19.405 33.441ZM55.145 54V1.024H72.162V54H55.145ZM83.1478 1.024H100.165V40.448H127.346V54H83.1478V1.024ZM184.066 32.671C184.066 39.909 181.782 45.4273 177.213 49.226C172.644 53.0247 166.151 54.924 157.732 54.924C149.313 54.924 142.794 53.0247 138.174 49.226C133.605 45.4273 131.321 39.909 131.321 32.671V1.024H148.338V32.44C148.338 35.4173 149.134 37.8043 150.725 39.601C152.316 41.3463 154.626 42.219 157.655 42.219C160.684 42.219 162.994 41.3207 164.585 39.524C166.228 37.7273 167.049 35.366 167.049 32.44V1.024H184.066V32.671ZM208.706 54L189.918 1.024H208.09L218.716 36.444H219.024L229.728 1.024H247.13L228.418 54H208.706ZM298.59 54V34.904C298.59 32.5427 298.667 30.13 298.821 27.666C299.026 25.1507 299.232 23.046 299.437 21.352C299.642 19.658 299.771 18.58 299.822 18.118H299.514L289.735 54H276.414L266.558 18.195H266.25C266.301 18.657 266.43 19.735 266.635 21.429C266.892 23.0717 267.123 25.1507 267.328 27.666C267.533 30.13 267.636 32.5427 267.636 34.904V54H252.005V1.024H276.029L284.037 31.593H284.345L292.276 1.024H315.453V54H298.59ZM357.521 54H340.504V33.441L319.483 1.024H339.041L349.205 18.657H349.513L359.677 1.024H378.234L357.521 33.441V54Z" fill="white"/>
<path d="M421.302 54L399.049 28.282V54H383.418V1.024H398.279L420.532 27.127V1.024H436.163V54H421.302Z" fill="#BEEF00"/>
<path d="M446.404 1.024H489.216V13.729H463.421V22.815H485.597V34.981H463.421V54H446.404V1.024ZM527.1 14.576V54H510.083V14.576H492.681V1.024H544.425V14.576H527.1Z" fill="#FE019A"/>
</svg>
