<svg width="330" height="25" viewBox="0 0 330 25" fill="none" xmlns="http://www.w3.org/2000/svg">
<path d="M19.503 24L16.566 10.173H16.434L13.497 24H5.478L0.165 1.296H7.755L10.362 14.166H10.494L13.068 1.296H20.262L23.001 14.166H23.133L25.575 1.296H32.835L27.522 24H19.503ZM34.947 1.296H54.582V6.741H42.24V9.876H52.8V15.09H42.24V18.555H54.813V24H34.947V1.296ZM80.1797 0.899998C82.3577 0.899998 84.3157 1.23 86.0537 1.89C87.7917 2.55 89.1667 3.529 90.1787 4.827C91.2127 6.103 91.7297 7.665 91.7297 9.513H84.7667C84.7667 8.567 84.3487 7.808 83.5127 7.236C82.6767 6.642 81.6647 6.345 80.4767 6.345C78.7607 6.345 77.4627 6.807 76.5827 7.731C75.7027 8.633 75.2627 9.92 75.2627 11.592V13.704C75.2627 15.376 75.7027 16.674 76.5827 17.598C77.4627 18.5 78.7607 18.951 80.4767 18.951C81.6647 18.951 82.6767 18.676 83.5127 18.126C84.3487 17.554 84.7667 16.828 84.7667 15.948H79.6187V11.328H91.7297V24H87.9677L87.2417 21.756C85.1737 23.516 82.4677 24.396 79.1237 24.396C75.3617 24.396 72.5347 23.417 70.6427 21.459C68.7507 19.479 67.8047 16.542 67.8047 12.648C67.8047 8.798 68.8717 5.883 71.0057 3.903C73.1617 1.901 76.2197 0.899998 80.1797 0.899998ZM107.042 0.899998C110.958 0.899998 113.983 1.901 116.117 3.903C118.251 5.905 119.318 8.82 119.318 12.648C119.318 16.476 118.251 19.391 116.117 21.393C113.983 23.395 110.958 24.396 107.042 24.396C103.126 24.396 100.101 23.406 97.9669 21.426C95.8549 19.424 94.7989 16.498 94.7989 12.648C94.7989 8.798 95.8549 5.883 97.9669 3.903C100.101 1.901 103.126 0.899998 107.042 0.899998ZM107.042 6.345C105.48 6.345 104.292 6.818 103.478 7.764C102.664 8.71 102.257 9.986 102.257 11.592V13.704C102.257 15.31 102.664 16.586 103.478 17.532C104.292 18.478 105.48 18.951 107.042 18.951C108.604 18.951 109.792 18.478 110.606 17.532C111.442 16.586 111.86 15.31 111.86 13.704V11.592C111.86 9.986 111.442 8.71 110.606 7.764C109.792 6.818 108.604 6.345 107.042 6.345ZM237.217 0.899998C237.063 2.044 236.535 3.474 235.633 5.19C234.731 6.884 233.653 8.589 232.399 10.305C231.167 11.999 230.012 13.396 228.934 14.496H235.468V9.777C236.15 8.809 236.843 7.665 237.547 6.345C238.251 5.025 238.713 3.936 238.933 3.078H241.738V14.496H244.906V19.347H241.738V24H235.468V19.347H224.413V14.43C225.601 12.714 226.778 10.635 227.944 8.193C229.11 5.751 230.045 3.32 230.749 0.899998H237.217ZM247.182 24V17.433H254.178V24H247.182ZM276.256 18.918V24H259.129V18.918H264.508V8.655H259.129V4.827C260.603 4.739 262.253 4.354 264.079 3.672C265.905 2.968 267.5 2.165 268.864 1.263H271.075V18.918H276.256ZM279.192 24V17.433H286.188V24H279.192ZM299.092 0.899998C300.874 0.899998 302.414 1.186 303.712 1.758C305.032 2.308 306.044 3.1 306.748 4.134C307.474 5.168 307.837 6.367 307.837 7.731C307.837 9.007 307.518 10.162 306.88 11.196C306.242 12.23 305.439 13.143 304.471 13.935C303.503 14.727 302.172 15.695 300.478 16.839C299.532 17.455 298.762 17.983 298.168 18.423H308.101V24H289.291V22.416C289.291 21.25 289.555 20.216 290.083 19.314C290.633 18.39 291.425 17.466 292.459 16.542C293.515 15.618 295.033 14.364 297.013 12.78C298.597 11.526 299.708 10.569 300.346 9.909C300.984 9.249 301.303 8.6 301.303 7.962C301.303 7.28 301.061 6.708 300.577 6.246C300.115 5.784 299.411 5.553 298.465 5.553C297.475 5.553 296.694 5.839 296.122 6.411C295.55 6.983 295.264 7.731 295.264 8.655V9.315H289.39C289.368 9.139 289.357 8.897 289.357 8.589C289.357 6.213 290.182 4.343 291.832 2.979C293.504 1.593 295.924 0.899998 299.092 0.899998ZM329.781 18.918V24H312.654V18.918H318.033V8.655H312.654V4.827C314.128 4.739 315.778 4.354 317.604 3.672C319.43 2.968 321.025 2.165 322.389 1.263H324.6V18.918H329.781Z" fill="white"/>
<path d="M133.244 1.296H140.537V18.192H152.186V24H133.244V1.296ZM155.09 24V1.296H162.383V24H155.09ZM173.262 24L165.21 1.296H172.998L177.552 16.476H177.684L182.271 1.296H189.729L181.71 24H173.262ZM192.281 1.296H211.916V6.741H199.574V9.876H210.134V15.09H199.574V18.555H212.147V24H192.281V1.296Z" fill="#BEEF00"/>
</svg>
