<svg width="577" height="32" viewBox="0 0 577 32" fill="none" xmlns="http://www.w3.org/2000/svg">
<path d="M26.004 31L22.088 12.564H21.912L17.996 31H7.304L0.22 0.727999H10.34L13.816 17.888H13.992L17.424 0.727999H27.016L30.668 17.888H30.844L34.1 0.727999H43.78L36.696 31H26.004ZM67.012 31V19.516H56.32V31H46.596V0.727999H56.32V11.772H67.012V0.727999H76.736V31H67.012ZM101.376 31H91.6523V19.252L79.6403 0.727999H90.8163L96.6243 10.804H96.8003L102.608 0.727999H113.212L101.376 19.252V31ZM144.599 0.199998C149.087 0.199998 152.636 1.32933 155.247 3.588C157.857 5.81733 159.163 9.01466 159.163 13.18H149.879C149.879 11.42 149.409 10.0267 148.471 9C147.561 7.97333 146.256 7.46 144.555 7.46C142.589 7.46 141.137 8.076 140.199 9.308C139.289 10.54 138.835 12.256 138.835 14.456V17.272C138.835 19.4427 139.289 21.1587 140.199 22.42C141.137 23.652 142.56 24.268 144.467 24.268C146.344 24.268 147.767 23.784 148.735 22.816C149.703 21.848 150.187 20.484 150.187 18.724H159.163C159.163 22.86 157.887 26.028 155.335 28.228C152.812 30.428 149.233 31.528 144.599 31.528C139.436 31.528 135.52 30.208 132.851 27.568C130.211 24.928 128.891 21.0267 128.891 15.864C128.891 10.7013 130.211 6.8 132.851 4.16C135.52 1.52 139.436 0.199998 144.599 0.199998ZM184.169 31V19.516H173.477V31H163.753V0.727999H173.477V11.772H184.169V0.727999H193.893V31H184.169ZM214.793 0.199998C220.015 0.199998 224.048 1.53466 226.893 4.204C229.739 6.87333 231.161 10.76 231.161 15.864C231.161 20.968 229.739 24.8547 226.893 27.524C224.048 30.1933 220.015 31.528 214.793 31.528C209.572 31.528 205.539 30.208 202.693 27.568C199.877 24.8987 198.469 20.9973 198.469 15.864C198.469 10.7307 199.877 6.844 202.693 4.204C205.539 1.53466 209.572 0.199998 214.793 0.199998ZM214.793 7.46C212.711 7.46 211.127 8.09067 210.041 9.352C208.956 10.6133 208.413 12.3147 208.413 14.456V17.272C208.413 19.4133 208.956 21.1147 210.041 22.376C211.127 23.6373 212.711 24.268 214.793 24.268C216.876 24.268 218.46 23.6373 219.545 22.376C220.66 21.1147 221.217 19.4133 221.217 17.272V14.456C221.217 12.3147 220.66 10.6133 219.545 9.352C218.46 8.09067 216.876 7.46 214.793 7.46ZM250.786 0.199998C256.007 0.199998 260.04 1.53466 262.886 4.204C265.731 6.87333 267.154 10.76 267.154 15.864C267.154 20.968 265.731 24.8547 262.886 27.524C260.04 30.1933 256.007 31.528 250.786 31.528C245.564 31.528 241.531 30.208 238.686 27.568C235.87 24.8987 234.462 20.9973 234.462 15.864C234.462 10.7307 235.87 6.844 238.686 4.204C241.531 1.53466 245.564 0.199998 250.786 0.199998ZM250.786 7.46C248.703 7.46 247.119 8.09067 246.034 9.352C244.948 10.6133 244.406 12.3147 244.406 14.456V17.272C244.406 19.4133 244.948 21.1147 246.034 22.376C247.119 23.6373 248.703 24.268 250.786 24.268C252.868 24.268 254.452 23.6373 255.538 22.376C256.652 21.1147 257.21 19.4133 257.21 17.272V14.456C257.21 12.3147 256.652 10.6133 255.538 9.352C254.452 8.09067 252.868 7.46 250.786 7.46ZM284.446 0.199998C288.318 0.199998 291.501 0.991998 293.994 2.576C296.487 4.13066 297.763 6.448 297.822 9.528V10.056H288.714V9.88C288.714 9 288.391 8.26666 287.746 7.68C287.101 7.09333 286.118 6.8 284.798 6.8C283.507 6.8 282.51 6.99067 281.806 7.372C281.131 7.75333 280.794 8.22267 280.794 8.78C280.794 9.572 281.263 10.1587 282.202 10.54C283.141 10.9213 284.651 11.3173 286.734 11.728C289.169 12.2267 291.163 12.7547 292.718 13.312C294.302 13.84 295.681 14.72 296.854 15.952C298.027 17.184 298.629 18.856 298.658 20.968C298.658 24.5467 297.441 27.2013 295.006 28.932C292.601 30.6627 289.374 31.528 285.326 31.528C280.603 31.528 276.922 30.736 274.282 29.152C271.671 27.568 270.366 24.7667 270.366 20.748H279.562C279.562 22.2733 279.958 23.3 280.75 23.828C281.542 24.3267 282.774 24.576 284.446 24.576C285.678 24.576 286.69 24.444 287.482 24.18C288.303 23.916 288.714 23.3733 288.714 22.552C288.714 21.8187 288.259 21.276 287.35 20.924C286.47 20.5427 285.018 20.1467 282.994 19.736C280.53 19.208 278.491 18.6653 276.878 18.108C275.265 17.5213 273.857 16.568 272.654 15.248C271.451 13.928 270.85 12.1387 270.85 9.88C270.85 6.56533 272.126 4.13066 274.678 2.576C277.259 0.991998 280.515 0.199998 284.446 0.199998ZM302.824 0.727999H329.004V7.988H312.548V12.168H326.628V19.12H312.548V23.74H329.312V31H302.824V0.727999ZM347.91 0.727999H357.634V23.256H373.166V31H347.91V0.727999ZM405.578 18.812C405.578 22.948 404.272 26.1013 401.662 28.272C399.051 30.4427 395.34 31.528 390.53 31.528C385.719 31.528 381.994 30.4427 379.354 28.272C376.743 26.1013 375.438 22.948 375.438 18.812V0.727999H385.162V18.68C385.162 20.3813 385.616 21.7453 386.526 22.772C387.435 23.7693 388.755 24.268 390.486 24.268C392.216 24.268 393.536 23.7547 394.446 22.728C395.384 21.7013 395.854 20.352 395.854 18.68V0.727999H405.578V18.812ZM419.658 31L408.922 0.727999H419.306L425.378 20.968H425.554L431.67 0.727999H441.614L430.922 31H419.658ZM565.166 0.199998C567.396 0.199998 569.361 0.566665 571.062 1.3C572.764 2.03333 574.084 3.08933 575.022 4.468C575.961 5.81733 576.43 7.38667 576.43 9.176C576.43 10.32 576.181 11.3467 575.682 12.256C575.184 13.136 574.597 13.884 573.922 14.5C573.248 15.116 572.397 15.7907 571.37 16.524C570.52 17.1693 569.889 17.6827 569.478 18.064C569.097 18.4453 568.906 18.8413 568.906 19.252V20.176H561.382V17.976C561.382 17.272 561.602 16.6413 562.042 16.084C562.482 15.4973 563.172 14.764 564.11 13.884C565.078 13.0333 565.812 12.2707 566.31 11.596C566.838 10.9213 567.102 10.1733 567.102 9.352C567.102 8.50133 566.838 7.78267 566.31 7.196C565.782 6.58 565.078 6.272 564.198 6.272C562.292 6.272 561.338 7.504 561.338 9.968C561.338 10.496 561.353 10.892 561.382 11.156H553.286C553.257 10.9507 553.228 10.716 553.198 10.452C553.169 10.188 553.154 9.86533 553.154 9.484C553.154 7.60667 553.668 5.97867 554.694 4.6C555.721 3.192 557.144 2.10667 558.962 1.344C560.81 0.581332 562.878 0.199998 565.166 0.199998ZM560.854 31V22.86H569.566V31H560.854Z" fill="white"/>
<path d="M480.656 31L467.94 16.304V31H459.008V0.727999H467.5L480.216 15.644V0.727999H489.148V31H480.656Z" fill="#BEEF00"/>
<path d="M495.001 0.727999H519.465V7.988H504.725V13.18H517.397V20.132H504.725V31H495.001V0.727999ZM541.112 8.472V31H531.388V8.472H521.444V0.727999H551.012V8.472H541.112Z" fill="#FE019A"/>
</svg>
